<?xml version="1.0" encoding="utf-8"?>
<!-- Generator: Adobe Illustrator 22.1.0, SVG Export Plug-In . SVG Version: 6.00 Build 0)  -->
<svg version="1.1" id="Layer_1" xmlns="http://www.w3.org/2000/svg" xmlns:xlink="http://www.w3.org/1999/xlink" x="0px" y="0px"
	 viewBox="0 0 107.2 46" style="enable-background:new 0 0 107.2 46;" xml:space="preserve">
<style type="text/css">
	.st0{fill:#177ABB;}
</style>
<g>
	<path class="st0" d="M65.9,12.9l0.2-0.4c0.3,0.2,0.6,0.5,1.2,0.5c0.9,0,1.5-0.5,1.5-1.3c0-1.3-2-1.8-2-2.7c0-0.3,0.2-0.5,0.6-0.5
		c0.5,0,0.8,0.2,1.3,1.1l0.2,0l-0.1-1.4h-0.2l-0.2,0.3c-0.2-0.2-0.5-0.4-1-0.4c-0.8,0-1.3,0.5-1.3,1.2c0,1.3,2,1.8,2,2.7
		c0,0.4-0.4,0.5-0.8,0.5c-0.6,0-1-0.3-1.6-1.5l-0.2,0l0.1,1.7H65.9z"/>
	<path class="st0" d="M70,10.2l-0.6,2.2c-0.1,0.5,0,0.6,0.3,0.6c0.3,0,0.5-0.2,1.3-1.1l-0.1-0.1l-0.7,0.6l0.7-2.2
		c0.1-0.4-0.1-0.6-0.3-0.6c-0.3,0-0.6,0.3-1.3,1.3l0.1,0.1L70,10.2z"/>
	<path class="st0" d="M70.7,9.1c0.2,0,0.5-0.2,0.5-0.5c0-0.2-0.2-0.5-0.5-0.5c-0.3,0-0.5,0.2-0.5,0.5C70.3,8.8,70.5,9.1,70.7,9.1z"
		/>
	<path class="st0" d="M72.1,10.3L71.3,13h0.8l0.4-1.5c0.6-1,0.9-1.2,1.1-1.2c0.1,0,0.1,0.1,0.1,0.4l-0.5,1.8c-0.1,0.4,0,0.6,0.3,0.6
		c0.2,0,0.5-0.2,1.2-1.1l-0.1-0.1L74,12.4l0.5-1.7c0.2-0.8,0-1.1-0.4-1.1c-0.6,0-1.1,0.7-1.8,1.9h0l0.5-1.2l0-0.2
		c0.1-0.4-0.1-0.5-0.3-0.5s-0.6,0.3-1.2,1.3l0.1,0.1L72.1,10.3z"/>
	<path class="st0" d="M75.9,13c0.6,0,1.1-0.5,1.5-1.2l-0.1-0.1c-0.4,0.6-0.7,0.8-1,0.8c-0.4,0-0.5-0.3-0.2-1.3c0.3-1,0.7-1.3,1-1.3
		c0.1,0,0.2,0,0.3,0v0c-0.2,0.1-0.3,0.2-0.3,0.4c0,0.2,0.2,0.4,0.4,0.4c0.2,0,0.4-0.2,0.4-0.5c0-0.5-0.4-0.7-0.8-0.7
		c-1.1,0-2,1.5-2,2.4C75,12.6,75.4,13,75.9,13z"/>
	<path class="st0" d="M78.8,13c0.7,0,1.1-0.5,1.5-1.2l-0.1-0.1c-0.5,0.6-0.7,0.8-1,0.8c-0.4,0-0.5-0.3-0.3-1.2
		c1.1-0.2,1.8-0.6,1.8-1.1c0-0.4-0.4-0.6-0.9-0.6c-1.1,0-1.9,1.5-1.9,2.5C77.9,12.6,78.2,13,78.8,13z M79.8,9.9
		c0.1,0,0.2,0.1,0.2,0.2c0,0.5-0.2,0.8-1.1,1.1C79.2,10.2,79.5,9.9,79.8,9.9z"/>
	<path class="st0" d="M84.1,12.7l-0.7-0.2l0.9-4.3h-0.3c-0.2,0.2-0.8,0.5-1.5,0.4l-0.1,0.2l0.7,0.2l-0.7,3.4l-0.8,0.2l-0.1,0.2h2.4
		L84.1,12.7z"/>
	<path class="st0" d="M84.7,12.9l0.1,0.2c2.4-0.4,3.7-1.6,3.7-3.2c0-0.9-0.6-1.6-1.5-1.6c-1,0-1.8,0.7-1.8,1.7
		c0,0.8,0.5,1.4,1.3,1.4c0.2,0,0.5-0.1,0.7-0.2C86.7,11.9,86.1,12.4,84.7,12.9z M86.6,11.1c-0.5,0-0.7-0.4-0.5-1.3
		c0.2-0.9,0.5-1.2,0.9-1.2c0.4,0,0.8,0.3,0.5,1.4C87.3,10.8,87,11,86.6,11.1z"/>
	<path class="st0" d="M89.8,13c1,0,1.8-0.6,1.8-1.5c0-0.7-0.5-1.1-1-1.2h0.1v0c0.5-0.1,1-0.5,1-1c0-0.6-0.4-1-1.2-1
		c-0.6,0-1.2,0.4-1.2,1c0,0.2,0.1,0.4,0.1,0.5l0.2-0.1c-0.1-0.6,0.2-0.9,0.6-0.9c0.4,0,0.6,0.2,0.6,0.6c0,0.5-0.6,0.9-1.4,1.2
		l0.1,0.2c0.1,0,0.2,0,0.4,0c0.5,0,0.9,0.3,0.9,0.9c0,0.6-0.4,1-1.1,1c-0.5,0-0.7-0.1-0.8-0.2v0c0.4,0,0.6-0.2,0.6-0.5
		c0-0.2-0.2-0.4-0.5-0.4c-0.3,0-0.5,0.2-0.5,0.6C88.4,12.6,88.8,13,89.8,13z"/>
	<path class="st0" d="M91.8,12.9l0.1,0.2c2.4-0.4,3.7-1.6,3.7-3.2c0-0.9-0.6-1.6-1.5-1.6c-1,0-1.8,0.7-1.8,1.7
		c0,0.8,0.5,1.4,1.3,1.4c0.2,0,0.5-0.1,0.7-0.2C93.9,11.9,93.3,12.4,91.8,12.9z M93.7,11.1c-0.5,0-0.7-0.4-0.5-1.3
		c0.2-0.9,0.5-1.2,0.9-1.2c0.4,0,0.8,0.3,0.5,1.4C94.5,10.8,94.1,11,93.7,11.1z"/>
	<path class="st0" d="M28.2,39.5c-1.1-0.3-1.4-0.5-1.4-1c0-0.4,0.3-0.6,0.9-0.6c0.8,0,1.1,0.3,1.8,1.3l0.2-0.1l-0.1-1.8h-0.4
		L29,37.8c-0.2-0.2-0.7-0.5-1.3-0.5c-1.2,0-1.9,0.7-1.9,1.6c0,1.1,0.7,1.6,2,2c1.1,0.3,1.4,0.5,1.4,1.1c0,0.5-0.4,0.7-1,0.7
		c-0.9,0-1.3-0.4-2.2-1.8l-0.2,0.1l0.2,2.2h0.5l0.2-0.5c0.4,0.3,0.9,0.6,1.6,0.6c1.3,0,2.1-0.8,2.1-1.9
		C30.2,40.4,29.4,39.8,28.2,39.5z"/>
	<polygon class="st0" points="35.8,41.2 34.3,37.3 32,37.3 32,37.7 32.7,37.9 32.7,42.7 32,42.9 32,43.3 34,43.3 34,42.9 33.3,42.7 
		33.1,38.4 35,43 35.7,43 37.4,38.4 37.4,42.7 36.8,42.9 36.8,43.3 39.6,43.3 39.6,42.9 39,42.7 39,37.9 39.6,37.7 39.6,37.3 
		37.1,37.3 	"/>
	<path class="st0" d="M44.5,37.3c-1.7,0-3.1,1.4-3.1,3c0,1.6,1.4,3,3.1,3c1.8,0,3.2-1.4,3.2-3C47.6,38.7,46.2,37.3,44.5,37.3z
		 M44.5,42.8c-1,0-1.5-0.5-1.5-2.4c0-2,0.4-2.5,1.5-2.5c1,0,1.5,0.5,1.5,2.5C46,42.2,45.5,42.8,44.5,42.8z"/>
	<path class="st0" d="M53.2,39.7c0,0,1.7-1.8,1.7-1.8l0.6-0.2v-0.3h-2.1v0.3l0.6,0.2l-1.7,2.2h-0.6v-2.2l0.6-0.2v-0.3h-2.9v0.3
		l0.7,0.2v4.8l-0.7,0.2v0.3h2.9v-0.3l-0.6-0.2v-2.1h0.5l1.4,2.1l-0.5,0.2v0.3h2.7v-0.3l-0.5-0.2C55.3,42.7,53.2,39.7,53.2,39.7z"/>
	<path class="st0" d="M61.6,42.7l-1.9,0.1v-2.4l0.8,0.1l0.4,0.9h0.3V39h-0.3l-0.4,0.9c0,0-0.8,0.1-0.8,0v-2.3l1.7,0.2l1,1.5l0.2,0
		l-0.2-2h-5v0.3l0.7,0.2v4.8l-0.7,0.2v0.3h5.3l0.2-2.2l-0.2,0L61.6,42.7z"/>
	<path class="st0" d="M70.2,39.5c-1.1-0.3-1.4-0.5-1.4-1c0-0.4,0.3-0.6,0.9-0.6c0.8,0,1.1,0.3,1.8,1.3l0.2-0.1l-0.1-1.8h-0.4
		L71,37.8c-0.2-0.2-0.7-0.5-1.3-0.5c-1.2,0-1.9,0.7-1.9,1.6c0,1.1,0.7,1.6,2,2c1.1,0.3,1.4,0.5,1.4,1.1c0,0.5-0.4,0.7-1,0.7
		c-0.9,0-1.3-0.4-2.2-1.8l-0.2,0.1l0.2,2.2h0.5l0.2-0.5c0.4,0.3,0.9,0.6,1.6,0.6c1.3,0,2.1-0.8,2.1-1.9
		C72.3,40.4,71.5,39.8,70.2,39.5z"/>
	<polygon class="st0" points="77.8,37.7 78.6,37.9 78.6,40 76.3,40 76.3,37.9 77,37.7 77,37.3 74,37.3 74,37.7 74.8,37.9 74.8,42.7 
		74,42.9 74,43.3 77,43.3 77,42.9 76.3,42.7 76.3,40.6 78.6,40.6 78.6,42.7 77.8,42.9 77.8,43.3 80.8,43.3 80.8,42.9 80.1,42.7 
		80.1,37.9 80.8,37.7 80.8,37.3 77.8,37.3 	"/>
	<path class="st0" d="M85.7,37.3c-1.7,0-3.1,1.4-3.1,3c0,1.6,1.4,3,3.1,3c1.8,0,3.2-1.4,3.2-3C88.8,38.7,87.4,37.3,85.7,37.3z
		 M85.7,42.8c-1,0-1.5-0.5-1.5-2.4c0-2,0.4-2.5,1.5-2.5c1,0,1.5,0.5,1.5,2.5C87.2,42.2,86.7,42.8,85.7,42.8z"/>
	<path class="st0" d="M93.5,37.3h-3v0.3l0.7,0.2v4.8l-0.7,0.2v0.3h3.1v-0.3l-0.7-0.2v-1.9l0.2,0.1c1.6,0.5,2.9-0.2,2.9-1.7
		C96,38,95.1,37.3,93.5,37.3z M93.3,40.5l-0.4,0v-2.5h0.5c0.8,0,1.1,0.2,1.1,1.3C94.5,40.3,94.3,40.5,93.3,40.5z"/>
	<path class="st0" d="M28.7,16.3c1.2,0.5,1.9,0.6,3,0.6c2.2,0,4.9-0.7,7.5-2c0.6-0.3,1.1-0.5,1.6-0.8c1.4,0.1,2.9,0.2,4.2-0.2
		c0.3-0.1,0.2-0.3-0.1-0.2c-0.2,0-0.3,0.1-0.5,0.1l-3.2,0.1c0,0-0.1,0-0.1,0c1.3-0.7,2.6-1.7,4.9-3.5c1.3-1,2.3-1.8,3.2-2.4
		c0.9-0.1,1.8-0.1,2.8-0.1c0.3,0,0.4-0.4,0-0.4c-0.7,0-1.5,0-2.2,0.1c2.8-1.9,4.3-2.3,6.5-2.3c2,0,3.4,0.4,5,1.5
		c-0.2,0-0.4-0.1-0.7-0.1c-2.4,0-5.1,1.5-7.9,4.6c-4.4,4.7-6.9,6.2-10.3,6.2c-1.6,0-3.5-0.4-5.1-1.1l-0.1,0.2c1.6,1.1,4,1.7,6.2,1.7
		c3.5,0,6.2-1.4,9.2-4.9c0.3-0.3,0.5-0.6,0.8-0.9c1.5-1.8,2.3-2.7,4-3.9c1.1-0.8,2.3-1.2,3.4-1.2c0.8,0,1.4,0.2,2,0.6l0.3,0.2
		L63,7.8c-0.5-2.1-2-4-4.3-5.3c-2.2-1.3-5-2.1-7.8-2.1C43.4,0.4,37.7,6,36,15c-1.9,0.9-3.3,1.3-4.9,1.3c-0.7,0-1.2,0-2.4-0.2
		L28.7,16.3z M40.1,7.5c2.9-3.6,7.3-5.8,11.8-5.8c4,0,7.9,1.8,9.7,4.3c-1.6-1.1-3.4-1.6-5.5-1.6c-1.4,0-2.9,0.3-4.2,0.7l1.5-1.5
		c0,0,0.1,0,0.1,0c0.2,0,0.4-0.3,0.1-0.2c-1.1,0.2-2,0.8-2.2,1.9c-0.2,0.1-0.3,0.1-0.5,0.2c-1.7,0.8-2.9,1.6-6.9,4.5l1.1-2.6
		c0.3-0.5,0.6-1,0.8-1.5c0-0.1-0.4,0-0.5,0.1c-0.8,1.5-1.8,2.8-2.1,4.4c-3.6,2.6-4.9,3.4-6.5,4.2C37.4,11.7,38.5,9.5,40.1,7.5z"/>
	<polygon class="st0" points="8.8,19.1 8.8,19.1 8.8,19.1 	"/>
	<path class="st0" d="M23.7,16h-4.5l1.5-6.1c0.7-2.8,2-3.7,4-3.7c0.8,0,1.4,0.1,1.6,0.4v0.1c-1.6,0.1-2.8,1.3-2.8,3.1
		c0,1.5,1.2,2.6,2.8,2.6c1.7,0,3.2-1.5,3.2-3.5c0-2.9-2.1-5-6-5c-4.3,0-8.5,2.2-10.2,9.9l-0.6,2.6L9.1,18l-0.3,1.2h3.4l-5,22
		c-0.4,1.8-1.4,2.5-2.9,2.5c-0.7,0-1.1-0.1-1.4-0.2v-0.1c1.4-0.3,2.3-1.1,2.3-2.6c0-1.2-1-2.2-2.3-2.2s-2.8,1.1-2.8,3
		c0,2.4,1.9,4.1,5.3,4.1c3.8,0,6.7-2,8.1-7.3l4.8-19.2h4.6L23.7,16z"/>
	<path class="st0" d="M34.6,29.3l-3.2,3.1l3.9-13.2h-4.6l-0.3,1.1c-0.5-0.7-1.3-1.3-2.8-1.3c-4.4,0-9,7.3-9,13.3
		c0,2.2,1.2,3.5,2.8,3.5c2.7,0,5.3-3.6,8-8.1l0.1,0l-2.3,4.6l-0.1,0.8c-0.2,1.9,0.5,2.6,1.4,2.6c1.4,0,3.2-1.2,6.7-5.8L34.6,29.3z
		 M28.3,27.9c-1.9,3.2-3.1,4.2-4,4.2c-0.4,0-0.7-0.2-0.7-1c0-0.4,0.1-1,0.3-1.8c1.3-6.3,2.9-8.3,4.5-8.3c0.7,0,1.2,0.3,1.5,0.8
		L28.3,27.9z"/>
	<path class="st0" d="M98.4,19c-3.6,0-5.7,2-5.7,4.8c0,4.3,5.3,5.9,5.3,8.2c0,1.3-1,1.9-2.7,1.9c-1.5,0-2.3-0.4-2.8-0.8v-0.1
		c1-0.2,1.7-0.9,1.7-1.9c0-1.1-0.9-1.9-2-1.9c-0.5,0-1,0.2-1.3,0.4l-0.1-0.1l-3.4,3.1l3.9-13.1h-4.6l-2.2,8C82,31.3,81,32,80.3,32
		c-0.6,0-0.8-0.4-0.4-1.7l2.1-7.7c0.2-0.7,0.3-1.3,0.3-1.8c0-1.4-0.7-1.8-1.7-1.8c-1.6,0-2.8,1-6,5.3c-0.3-2.9-2.6-5.3-5.9-5.3
		c-4.6,0-9.5,4.8-9.5,10.6l0,0L56,32.4l2.5-7.8c0.4-1.1,0.5-2.1,0.5-2.9c0-1.9-1-2.8-2.6-2.8c-2.6,0-5.1,3.4-8.2,8.7l-0.1-0.1
		l2.2-5.1c0.1-0.4,0.1-0.8,0.1-1.1c0-1.8-0.9-2.5-2.2-2.5c-2.7,0-5.2,3.7-8.3,9.2l-0.1,0l2.3-5.5l0.1-1.1c0.2-1.8-0.4-2.5-1.5-2.5
		c-1.2,0-2.7,1.1-6.4,6.3l0.6,0.6l3-3.1l-3.4,12.7h4.6l2.1-8c2.6-3.9,3.4-4.7,4.2-4.7c0.5,0,0.6,0.4,0.2,1.6l-2.9,11.1h4.5l2.2-8.2
		c2.4-3.8,3.4-4.5,4.1-4.5c0.5,0,0.6,0.4,0.2,1.6l-2.2,8.2c-0.1,0.5-0.2,1-0.2,1.3c0,1.2,0.7,1.8,1.7,1.8c1.4,0,2.7-0.9,6-5
		c0.5,2.7,2.6,5,5.8,5c4.5,0,9.1-4.5,9.5-10l2.9-3L75.4,30c-0.3,1.1-0.5,2-0.5,2.8c0,2,1,2.9,2.5,2.9c2.6,0,5.3-3.2,8.6-9.1l0.1,0
		l-2.5,5.5l-0.2,1c-0.3,1.9,0.3,2.5,1.6,2.5c1.1,0,2.3-0.7,5-3.9c0.2,2.3,2.6,3.9,6,3.9c4.1,0,6.1-2.2,6.1-4.9c0-4-5.7-5.9-5.7-8.3
		c0-1,0.8-1.7,2.2-1.7c1.1,0,2,0.3,2.3,0.5v0.1c-0.7,0.2-1.4,0.8-1.4,1.7c0,1,0.8,1.8,1.8,1.8c1.2,0,2-0.9,2-2.2
		C103.5,20.5,101.4,19,98.4,19z M69.2,27.1c-1.6,5.9-2.3,6.9-4,6.9c-0.9,0-1.4-0.3-1.4-1.5c0-1,0.3-2.5,1-4.9c1.6-5.9,2.3-6.9,4-6.9
		c0.9,0,1.4,0.4,1.4,1.6C70.1,23.3,69.8,24.8,69.2,27.1z"/>
	<path class="st0" d="M106,20.7c-0.1-0.2-0.2-0.2-0.4-0.3c0.2-0.1,0.4-0.2,0.4-0.4c0-0.3-0.2-0.4-0.6-0.4h-0.8v0.1l0.2,0.1v1
		l-0.2,0.1v0.1h0.8v-0.1l-0.2-0.1v-0.4h0.1c0.2,0,0.2,0,0.3,0.4c0,0.1,0.1,0.1,0.1,0.1h0.4v-0.1l-0.1-0.1L106,20.7z M105.3,20.3
		L105.3,20.3l-0.1-0.4h0.1c0.2,0,0.2,0,0.2,0.2C105.5,20.2,105.5,20.3,105.3,20.3z"/>
	<path class="st0" d="M105.3,19c-0.8,0-1.4,0.6-1.4,1.4c0,0.7,0.6,1.4,1.4,1.4c0.8,0,1.4-0.6,1.4-1.4C106.7,19.6,106.1,19,105.3,19z
		 M105.3,21.5c-0.7,0-1.1-0.5-1.1-1.2s0.5-1.2,1.1-1.2c0.7,0,1.1,0.5,1.1,1.2S106,21.5,105.3,21.5z"/>
</g>
</svg>
